<svg width="54" height="53" viewBox="0 0 54 53" fill="none" xmlns="http://www.w3.org/2000/svg">
<path d="M44.4375 0H9.5625C4.28128 0 0 4.28128 0 9.5625V43.0875C0 48.3687 4.28128 52.65 9.5625 52.65H44.4375C49.7187 52.65 54 48.3687 54 43.0875V9.5625C54 4.28128 49.7187 0 44.4375 0Z" fill="#001E36"/>
<path d="M12.1593 36.9214V13.7737C12.1593 13.605 12.2318 13.5201 12.3767 13.5201C12.7627 13.5201 13.1151 13.5145 13.6466 13.502C14.1776 13.4901 14.7511 13.4781 15.3673 13.4658C15.9832 13.4539 16.6352 13.4418 17.3235 13.4295C18.0117 13.4177 18.6939 13.4116 19.3701 13.4114C21.2052 13.4114 22.7508 13.6408 24.0069 14.0997C25.14 14.483 26.1734 15.1141 27.0318 15.9472C27.7594 16.6692 28.3217 17.5406 28.68 18.501C29.0189 19.4358 29.1906 20.4229 29.1872 21.4171C29.1872 23.3495 28.7404 24.9434 27.8469 26.1988C26.9474 27.4594 25.6831 28.414 24.2243 28.9338C22.7029 29.5016 21.0122 29.6941 19.1528 29.6941C18.6213 29.6941 18.247 29.688 18.0298 29.676C17.8125 29.664 17.4865 29.658 17.0518 29.6578V36.8852C17.0581 36.9295 17.0541 36.9747 17.0399 37.0171C17.0258 37.0596 17.0019 37.0981 16.9703 37.1298C16.9386 37.1614 16.9001 37.1852 16.8576 37.1994C16.8152 37.2135 16.77 37.2176 16.7257 37.2113H12.4129C12.2437 37.2112 12.1593 37.115 12.1593 36.9214ZM17.0518 17.8671V25.417C17.3654 25.4413 17.6551 25.4534 17.9212 25.4532H19.1166C19.9962 25.4502 20.8699 25.3108 21.7067 25.0397C22.4244 24.8265 23.0657 24.4116 23.5542 23.8443C24.0251 23.289 24.2605 22.5162 24.2606 21.5259C24.2797 20.8251 24.0974 20.1336 23.7352 19.5334C23.3545 18.9531 22.8043 18.5041 22.1595 18.2475C21.3174 17.9202 20.418 17.7662 19.5151 17.7947C18.9354 17.7947 18.4222 17.8007 17.9755 17.8128C17.5284 17.8252 17.2205 17.8433 17.0518 17.8671Z" fill="#31A8FF"/>
<path d="M43.1935 24.0442C42.5127 23.6944 41.7876 23.4385 41.0381 23.2834C40.2122 23.094 39.3678 22.9968 38.5204 22.9936C38.0621 22.9812 37.6044 23.0361 37.162 23.1567C36.8804 23.2194 36.6301 23.3798 36.4556 23.6095C36.3375 23.7932 36.2747 24.0069 36.2745 24.2253C36.2811 24.4372 36.3575 24.6409 36.4918 24.8049C36.7034 25.0524 36.9619 25.2555 37.2525 25.4026C37.769 25.6807 38.3012 25.9287 38.8464 26.1452C40.0622 26.5522 41.2239 27.1057 42.3059 27.7934C43.043 28.2587 43.6529 28.8997 44.0809 29.659C44.4408 30.378 44.6211 31.1736 44.6062 31.9775C44.6279 33.039 44.3245 34.0818 43.7369 34.966C43.1076 35.8636 42.2337 36.5615 41.2191 36.9765C40.1199 37.4593 38.7615 37.7008 37.1439 37.701C36.1162 37.7114 35.0903 37.6143 34.0828 37.4112C33.2891 37.2657 32.5164 37.0223 31.7825 36.6867C31.7033 36.6458 31.6374 36.5832 31.5925 36.5062C31.5476 36.4292 31.5256 36.341 31.529 36.252V32.3397C31.5246 32.3014 31.5307 32.2626 31.5467 32.2275C31.5627 32.1924 31.5878 32.1623 31.6196 32.1405C31.6507 32.1229 31.6864 32.1152 31.722 32.1184C31.7576 32.1217 31.7914 32.1357 31.8188 32.1586C32.6855 32.6696 33.6265 33.0424 34.6081 33.2634C35.4732 33.4803 36.3607 33.5958 37.2525 33.6076C38.0976 33.6076 38.7194 33.4989 39.1181 33.2815C39.2981 33.1991 39.4504 33.0663 39.5565 32.8992C39.6626 32.732 39.7179 32.5377 39.7159 32.3397C39.7159 32.0261 39.5347 31.7243 39.1725 31.4341C38.8103 31.1443 38.0737 30.7941 36.9627 30.3835C35.8253 29.9876 34.7468 29.4393 33.7568 28.7534C33.0487 28.261 32.4656 27.6097 32.0542 26.8516C31.698 26.1378 31.5179 25.349 31.529 24.5513C31.527 23.5929 31.7902 22.6525 32.2897 21.8345C32.8591 20.9336 33.6768 20.2165 34.6444 19.7696C35.7067 19.2387 37.035 18.9731 38.6291 18.9727C39.5627 18.9652 40.4954 19.0318 41.4184 19.1719C42.0868 19.2567 42.7403 19.4335 43.3603 19.6972C43.4095 19.7113 43.4547 19.7366 43.4924 19.7712C43.5302 19.8058 43.5593 19.8486 43.5776 19.8964C43.6021 19.9849 43.6143 20.0763 43.6139 20.1681V23.8268C43.6164 23.8694 43.6077 23.9119 43.5886 23.95C43.5696 23.9882 43.5408 24.0206 43.5052 24.0442C43.4568 24.0683 43.4035 24.0808 43.3494 24.0808C43.2953 24.0808 43.2419 24.0683 43.1935 24.0442Z" fill="#31A8FF"/>
</svg>
